<svg xmlns="http://www.w3.org/2000/svg" viewBox="0 0 760 520" role="img" aria-labelledby="titulo desc">
  <title id="titulo">Escudo, calendário e validação de alimento</title>
  <desc id="desc">Ilustração sobre segurança, conferência e validade responsável.</desc>
  <defs>
    <linearGradient id="bg" x1="0" x2="1" y1="0" y2="1">
      <stop offset="0" stop-color="#f8fbf6"/>
      <stop offset="1" stop-color="#e3f2dc"/>
    </linearGradient>
    <linearGradient id="shield" x1="0" x2="1" y1="0" y2="1">
      <stop offset="0" stop-color="#006c2b"/>
      <stop offset="1" stop-color="#8bd12b"/>
    </linearGradient>
  </defs>
  <rect width="760" height="520" rx="34" fill="url(#bg)"/>
  <g transform="translate(115 91)">
    <path d="M154 0 16 52v112c0 101 70 166 138 196 68-30 138-95 138-196V52Z" fill="url(#shield)"/>
    <path d="m91 169 47 46 94-110" fill="none" stroke="#fff" stroke-width="22" stroke-linecap="round" stroke-linejoin="round"/>
  </g>
  <g transform="translate(418 116)">
    <rect width="230" height="210" rx="26" fill="#fff" stroke="#d6e6d1" stroke-width="4"/>
    <rect width="230" height="58" rx="26" fill="#006c2b"/>
    <path d="M54 38V14M176 38V14" stroke="#8bd12b" stroke-width="10" stroke-linecap="round"/>
    <g fill="#e8f5e3">
      <rect x="34" y="86" width="40" height="34" rx="8"/>
      <rect x="92" y="86" width="40" height="34" rx="8"/>
      <rect x="150" y="86" width="40" height="34" rx="8"/>
      <rect x="34" y="140" width="40" height="34" rx="8"/>
      <rect x="92" y="140" width="40" height="34" rx="8"/>
      <rect x="150" y="140" width="40" height="34" rx="8"/>
    </g>
    <path d="M101 157 115 170l32-38" fill="none" stroke="#006c2b" stroke-width="8" stroke-linecap="round" stroke-linejoin="round"/>
  </g>
  <path d="M388 397c50 10 100 9 150-4" stroke="#8bd12b" stroke-width="9" stroke-linecap="round" opacity=".55"/>
</svg>
